<svg width="25" height="24" viewBox="0 0 25 24" fill="none" xmlns="http://www.w3.org/2000/svg">
<path d="M21.34 4.61C20.8292 4.099 20.2228 3.69365 19.5554 3.41708C18.8879 3.14052 18.1725 2.99817 17.45 2.99817C16.7275 2.99817 16.0121 3.14052 15.3446 3.41708C14.6772 3.69365 14.0708 4.099 13.56 4.61L12.5 5.67L11.44 4.61C10.4083 3.57831 9.00903 2.99871 7.55 2.99871C6.09096 2.99871 4.69169 3.57831 3.66 4.61C2.6283 5.64169 2.04871 7.04097 2.04871 8.5C2.04871 9.95903 2.6283 11.3583 3.66 12.39L4.72 13.45L12.5 21.23L20.28 13.45L21.34 12.39C21.851 11.8792 22.2563 11.2728 22.5329 10.6054C22.8095 9.9379 22.9518 9.22249 22.9518 8.5C22.9518 7.77751 22.8095 7.0621 22.5329 6.39464C22.2563 5.72719 21.851 5.12076 21.34 4.61V4.61Z" stroke="#B7C1C2" stroke-width="2" stroke-linecap="round" stroke-linejoin="round"/>
</svg>
